<svg width="14" height="15" viewBox="0 0 14 15" fill="none" xmlns="http://www.w3.org/2000/svg">
<g id="icons">
<path id="Vector" d="M7 0.5C7.23206 0.5 7.45462 0.592187 7.61872 0.756282C7.78281 0.920376 7.875 1.14294 7.875 1.375V6.625H13.125C13.3571 6.625 13.5796 6.71719 13.7437 6.88128C13.9078 7.04538 14 7.26794 14 7.5C14 7.73206 13.9078 7.95462 13.7437 8.11872C13.5796 8.28281 13.3571 8.375 13.125 8.375H7.875V13.625C7.875 13.8571 7.78281 14.0796 7.61872 14.2437C7.45462 14.4078 7.23206 14.5 7 14.5C6.76794 14.5 6.54538 14.4078 6.38128 14.2437C6.21719 14.0796 6.125 13.8571 6.125 13.625V8.375H0.875C0.642936 8.375 0.420376 8.28281 0.256282 8.11872C0.0921874 7.95462 0 7.73206 0 7.5C0 7.26794 0.0921874 7.04538 0.256282 6.88128C0.420376 6.71719 0.642936 6.625 0.875 6.625H6.125V1.375C6.125 1.14294 6.21719 0.920376 6.38128 0.756282C6.54538 0.592187 6.76794 0.5 7 0.5Z" fill="#858585"/>
</g>
</svg>
