<svg width="14" height="15" viewBox="0 0 14 15" fill="none" xmlns="http://www.w3.org/2000/svg">
<g id="icons">
<path id="Vector" d="M12.6 14.5H1.4C1.0287 14.5 0.672601 14.3156 0.41005 13.9874C0.1475 13.6592 0 13.2141 0 12.75V2.25C0 1.78587 0.1475 1.34075 0.41005 1.01256C0.672601 0.684374 1.0287 0.5 1.4 0.5H12.6C12.9713 0.5 13.3274 0.684374 13.5899 1.01256C13.8525 1.34075 14 1.78587 14 2.25V12.75C14 13.2141 13.8525 13.6592 13.5899 13.9874C13.3274 14.3156 12.9713 14.5 12.6 14.5ZM1.4 2.25V12.75H12.6V2.25H1.4ZM2.8 4.875H11.2V6.625H2.8V4.875ZM2.8 8.375H9.8V10.125H2.8V8.375Z" fill="#797873"/>
</g>
</svg>
